# xmcd
#
# Track frame offsets:
#	150
#	12399
#	28836
#	51040
#	60803
#	75664
#	88019
#	105352
#	125067
#	136020
#	152635
#	164302
#	178949
#	200799
#
# Disc length: 2884 seconds
#
# Revision: 0
# Processed by: cddbd v1.5.1PL2 Copyright (c) Steve Scherf et al.
# Submitted via: EasyCDDAExtractor 8.2.1.1
#
DISCID=b10b420e
DTITLE=Caine and Russova - Zive
DYEAR=2005
DGENRE=Blues
TTITLE0=Nekonecno
TTITLE1=Na dalku
TTITLE2=Pohadka tisice a jednoho dne
TTITLE3=Poutnici
TTITLE4=Zavodnici
TTITLE5=Po stupnich prani
TTITLE6=Za dva
TTITLE7=Kapitan Kirk
TTITLE8=Kridla
TTITLE9=O vecnem hladu
TTITLE10=Odpoved
TTITLE11=Panacci s lucernou
TTITLE12=Pisnicka o lasce
TTITLE13=Jablonove kone
EXTD=
EXTT0=
EXTT1=
EXTT2=
EXTT3=
EXTT4=
EXTT5=
EXTT6=
EXTT7=
EXTT8=
EXTT9=
EXTT10=
EXTT11=
EXTT12=
EXTT13=
PLAYORDER=
